# xmcd
#
# Track frame offsets: 
#        150
#        7283
#        24661
#        42028
#        59469
#        64105
#        85692
#        103023
#        121395
#        139563
#        160189
#        163225
#        176475
#        195701
#        213601
#
# Disc length: 3118 seconds
#
# Revision: 2
# Processed by: cddbd v1.5.2PL0 Copyright (c) Steve Scherf et al.
# Submitted via: ExactAudioCopyFreeDBPlugin 1.0
#
DISCID=d10c2c0f
DTITLE=Porno and Separate - 1. Liga
DYEAR=2004
DGENRE=Rap
TTITLE0=Intro
TTITLE1=Ja Ja
TTITLE2=Wie uns
TTITLE3=333 Massaker feat. Jonarama
TTITLE4=Anrufbeantworter 2 (Skit)
TTITLE5=Reiche Kinder - Arme Kinder
TTITLE6=P and S (Berlin bis nach Mainz)
TTITLE7=Coops
TTITLE8=Zurück in die Kindheit feat. Kool Savas
TTITLE9=Alles vergessen
TTITLE10=Skit
TTITLE11=Separetta Vendetta
TTITLE12=Hängen und Bängen
TTITLE13=Keiner hat gewusst feat. Abroo
TTITLE14=In the Night
EXTD=
EXTT0=
EXTT1=
EXTT2=
EXTT3=
EXTT4=
EXTT5=
EXTT6=
EXTT7=
EXTT8=
EXTT9=
EXTT10=
EXTT11=
EXTT12=
EXTT13=
EXTT14=
PLAYORDER=
